<svg width="23" height="12" viewBox="0 0 23 12" fill="none" xmlns="http://www.w3.org/2000/svg">
<path d="M0.657228 5.59267L5.74505 0.518923C5.91175 0.352785 6.18163 0.353064 6.34805 0.519782C6.51434 0.686479 6.51391 0.956515 6.34719 1.12278L1.56221 5.89455L6.34736 10.6663C6.51406 10.8326 6.51449 11.1024 6.34822 11.2692C6.2648 11.3527 6.15551 11.3945 6.04622 11.3945C5.93721 11.3945 5.82835 11.353 5.74507 11.27L0.657228 6.1964C0.576941 6.11653 0.531888 6.00782 0.531888 5.89455C0.531888 5.78128 0.57707 5.6727 0.657228 5.59267Z" fill="#656D89"/>
<path d="M22.3428 6.19639L17.2549 11.2701C17.0883 11.4363 16.8184 11.436 16.6519 11.2693C16.4857 11.1026 16.4861 10.8325 16.6528 10.6663L21.4378 5.89451L16.6526 1.12277C16.4859 0.956478 16.4855 0.686614 16.6518 0.519896C16.7352 0.436322 16.8445 0.394534 16.9538 0.394534C17.0628 0.394534 17.1717 0.436043 17.2549 0.519036L22.3428 5.59266C22.4231 5.67254 22.4681 5.78125 22.4681 5.89451C22.4681 6.00778 22.4229 6.11636 22.3428 6.19639Z" fill="#656D89"/>
</svg>
