<svg width="186" height="86" viewBox="0 0 186 86" fill="none" xmlns="http://www.w3.org/2000/svg">
<path d="M91.7394 41.5341L48.6728 1.55286C47.8007 0.743265 46.3868 0.743265 45.5147 1.55286L2.44811 41.5341C1.57604 42.3437 1.57604 43.6563 2.44811 44.4659L45.5147 84.4471C46.3868 85.2567 47.8007 85.2567 48.6728 84.4471L91.7394 44.4659C92.6115 43.6563 92.6115 42.3437 91.7394 41.5341Z" fill="url(#paint0_linear_1184_3)"/>
<path d="M63.3123 70.0381C57.8999 72.6499 59.1149 72.5491 52.4981 73.0687C45.8808 73.5879 39.2234 72.5383 33.2784 70.0381C27.3334 67.5379 22.3382 63.6872 18.8581 58.9216C15.3781 54.156 13.552 48.6657 13.5864 43.0717C13.6209 37.4778 15.5145 32.0037 19.0531 27.2687C22.5917 22.5336 27.6339 18.7267 33.6094 16.2786C39.5849 13.8305 46.2551 12.8389 52.8652 13.4161C59.4754 13.9932 61.1628 14.3965 66.4141 17.8249L63.3123 27.9022C59.914 25.6837 55.8463 24.31 51.569 23.9366C47.2916 23.5631 42.9752 24.2047 39.1085 25.7889C35.2418 27.373 31.979 29.8365 29.6892 32.9005C27.3994 35.9645 26.174 39.5068 26.1518 43.1267C26.1294 46.7464 27.3111 50.2991 29.563 53.383C31.815 56.4669 35.0473 58.9584 38.8943 60.5764C42.7413 62.194 47.0493 62.8732 51.331 62.5371C55.6132 62.201 59.6974 60.8629 63.1228 58.6744L63.3123 70.0381Z" fill="#D0D0D0"/>
<path d="M88.8865 15.1953C87.8275 15.1953 87.0077 15.566 86.4266 16.3075C85.846 17.0434 85.5554 18.0713 85.5554 19.3913C85.5554 22.1382 86.6658 23.5116 88.8865 23.5116C89.8179 23.5116 90.9464 23.2953 92.2715 22.8628V25.0535C91.1826 25.4748 89.9666 25.6854 88.6229 25.6854C86.6927 25.6854 85.2165 25.1434 84.1941 24.0592C83.1713 22.9695 82.6602 21.4079 82.6602 19.3745C82.6602 18.0938 82.9111 16.9731 83.4135 16.0126C83.9158 15.0464 84.6358 14.3078 85.5735 13.7966C86.5176 13.2798 87.6216 13.0214 88.8865 13.0214C90.175 13.0214 91.4698 13.3107 92.7709 13.8893L91.863 16.0126C91.367 15.7935 90.8681 15.6025 90.3657 15.4397C89.8634 15.2768 89.3703 15.1953 88.8865 15.1953ZM103.281 16.0969V18.0264H99.9589V25.5169H97.1908V18.0264H93.8597V16.0969H103.281ZM110.751 25.6854C109.559 25.6854 108.624 25.2838 107.946 24.4805H107.801C107.897 25.2669 107.946 25.7219 107.946 25.8455V29.6624H105.178V16.0969H107.429L107.819 17.3186H107.946C108.593 16.3861 109.553 15.9199 110.823 15.9199C112.021 15.9199 112.959 16.3496 113.637 17.2091C114.315 18.0685 114.653 19.2621 114.653 20.79C114.653 21.7955 114.493 22.669 114.172 23.4104C113.858 24.1519 113.407 24.7165 112.82 25.104C112.233 25.4916 111.543 25.6854 110.751 25.6854ZM109.934 17.9758C109.25 17.9758 108.751 18.1724 108.436 18.5656C108.121 18.9532 107.958 19.5964 107.946 20.4951V20.7732C107.946 21.7843 108.106 22.5089 108.427 22.947C108.754 23.3852 109.268 23.6043 109.97 23.6043C111.21 23.6043 111.831 22.6549 111.831 20.7563C111.831 19.8295 111.676 19.1358 111.367 18.6752C111.065 18.2089 110.587 17.9758 109.934 17.9758ZM119.146 20.79C119.146 21.7225 119.309 22.4274 119.636 22.9049C119.969 23.3824 120.507 23.6211 121.252 23.6211C121.99 23.6211 122.519 23.3852 122.84 22.9133C123.167 22.4359 123.33 21.7281 123.33 20.79C123.33 19.8576 123.167 19.1582 122.84 18.692C122.513 18.2258 121.978 17.9927 121.233 17.9927C120.495 17.9927 119.963 18.2258 119.636 18.692C119.309 19.1526 119.146 19.852 119.146 20.79ZM126.162 20.79C126.162 22.3235 125.726 23.5228 124.855 24.3879C123.984 25.2529 122.77 25.6854 121.215 25.6854C120.241 25.6854 119.382 25.4888 118.638 25.0956C117.893 24.6968 117.321 24.1267 116.922 23.3852C116.523 22.6437 116.323 21.7787 116.323 20.79C116.323 19.2509 116.756 18.0544 117.621 17.2006C118.486 16.3468 119.703 15.9199 121.27 15.9199C122.244 15.9199 123.103 16.1165 123.847 16.5097C124.592 16.9029 125.163 17.4675 125.562 18.2033C125.962 18.9392 126.162 19.8014 126.162 20.79ZM131.126 16.0969V19.8211C131.126 20.2143 131.057 21.1748 130.917 22.7027L135.601 16.0969H138.931V25.5169H136.254V21.759C136.254 21.0906 136.315 20.1469 136.436 18.9279L131.77 25.5169H128.448V16.0969H131.126ZM150.24 16.0969V18.0264H146.918V25.5169H144.15V18.0264H140.819V16.0969H150.24ZM156.339 17.7483C155.752 17.7483 155.293 17.9224 154.96 18.2707C154.627 18.6134 154.437 19.1021 154.388 19.7368H158.272C158.26 19.1021 158.082 18.6134 157.737 18.2707C157.392 17.9224 156.926 17.7483 156.339 17.7483ZM156.73 25.6854C155.096 25.6854 153.819 25.2669 152.9 24.43C151.98 23.593 151.52 22.4078 151.52 20.8743C151.52 19.2959 151.943 18.0769 152.791 17.2175C153.644 16.3525 154.821 15.9199 156.321 15.9199C157.755 15.9199 158.872 16.2991 159.67 17.0574C160.469 17.8157 160.868 18.8633 160.868 20.2002V21.4473H154.325C154.355 22.1775 154.588 22.7476 155.024 23.1577C155.459 23.5677 156.07 23.7728 156.857 23.7728C157.468 23.7728 158.045 23.7138 158.59 23.5958C159.135 23.4779 159.704 23.2897 160.297 23.0313V25.0198C159.812 25.2445 159.295 25.4102 158.744 25.5169C158.194 25.6293 157.522 25.6854 156.73 25.6854ZM172.204 25.5169H169.436V18.0264H166.886C166.692 20.1328 166.456 21.7056 166.178 22.7448C165.899 23.7784 165.527 24.5283 165.061 24.9945C164.602 25.4551 163.996 25.6854 163.246 25.6854C162.605 25.6854 162.079 25.5956 161.667 25.4158V23.3599C161.964 23.4722 162.26 23.5284 162.556 23.5284C162.901 23.5284 163.189 23.2981 163.419 22.8375C163.655 22.3769 163.863 21.6101 164.045 20.5373C164.232 19.4588 164.393 17.9786 164.526 16.0969H172.204V25.5169ZM177.886 19.7368H179.837C181.398 19.7368 182.554 19.9671 183.304 20.4277C184.055 20.8883 184.43 21.5848 184.43 22.5173C184.43 24.5171 182.935 25.5169 179.946 25.5169H175.118V16.0969H177.886V19.7368ZM181.662 22.551C181.662 22.1859 181.504 21.9219 181.19 21.759C180.875 21.5961 180.406 21.5146 179.783 21.5146H177.886V23.7391H179.819C181.047 23.7391 181.662 23.3431 181.662 22.551Z" fill="#212D55"/>
<path d="M103.067 34.0975C102.378 34.0975 101.837 34.3241 101.442 34.7773C101.047 35.2305 100.85 35.856 100.85 36.6538C100.85 37.4889 101.039 38.1206 101.417 38.5489C101.798 38.9773 102.348 39.1915 103.067 39.1915C103.378 39.1915 103.679 39.1636 103.97 39.1077C104.261 39.0487 104.563 38.9743 104.878 38.8842V39.8388C104.302 40.0405 103.65 40.1414 102.921 40.1414C101.848 40.1414 101.024 39.8403 100.449 39.2381C99.8736 38.6328 99.5859 37.7682 99.5859 36.6445C99.5859 35.9367 99.7249 35.3174 100.002 34.7866C100.283 34.2558 100.688 33.8491 101.216 33.5667C101.745 33.2842 102.365 33.1429 103.077 33.1429C103.826 33.1429 104.518 33.2888 105.153 33.5806L104.722 34.5073C104.474 34.3986 104.212 34.3039 103.934 34.2232C103.661 34.1394 103.371 34.0975 103.067 34.0975ZM110.5 34.8984V35.7551H108.694V40.0483H107.511V35.7551H105.705V34.8984H110.5ZM114.382 40.1414C113.68 40.1414 113.135 39.9071 112.747 39.4383H112.677C112.724 39.8729 112.747 40.1368 112.747 40.2299V42.3393H111.569V34.8984H112.522C112.548 34.9946 112.603 35.2243 112.687 35.5875H112.747C113.115 35.066 113.667 34.8052 114.402 34.8052C115.094 34.8052 115.633 35.0381 116.017 35.5037C116.405 35.9693 116.599 36.6228 116.599 37.464C116.599 38.3053 116.402 38.9618 116.007 39.4337C115.616 39.9055 115.074 40.1414 114.382 40.1414ZM114.097 35.6993C113.628 35.6993 113.286 35.8265 113.068 36.0811C112.854 36.3356 112.747 36.7423 112.747 37.3011V37.464C112.747 38.0911 112.854 38.5459 113.068 38.8284C113.282 39.1077 113.631 39.2474 114.117 39.2474C114.525 39.2474 114.839 39.0922 115.059 38.7818C115.28 38.4713 115.39 38.029 115.39 37.4547C115.39 36.8773 115.28 36.4412 115.059 36.1463C114.842 35.8483 114.521 35.6993 114.097 35.6993ZM122.889 37.464C122.889 38.3053 122.657 38.9618 122.192 39.4337C121.727 39.9055 121.08 40.1414 120.251 40.1414C119.733 40.1414 119.274 40.0328 118.877 39.8155C118.478 39.5982 118.173 39.2862 117.958 38.8796C117.745 38.4729 117.638 38.0011 117.638 37.464C117.638 36.629 117.868 35.9771 118.33 35.5083C118.791 35.0396 119.442 34.8052 120.281 34.8052C121.083 34.8052 121.718 35.0458 122.187 35.527C122.655 36.005 122.889 36.6507 122.889 37.464ZM118.851 37.464C118.851 38.6529 119.325 39.2474 120.271 39.2474C121.207 39.2474 121.675 38.6529 121.675 37.464C121.675 36.2875 121.203 35.6993 120.261 35.6993C119.766 35.6993 119.406 35.8514 119.182 36.1556C118.962 36.4598 118.851 36.8959 118.851 37.464ZM125.377 34.8984V37.5385C125.377 37.8458 125.35 38.2975 125.297 38.8935L128.08 34.8984H129.519V40.0483H128.386V37.4547C128.386 37.3119 128.394 37.0806 128.411 36.7609C128.431 36.4412 128.448 36.2083 128.461 36.0625L125.687 40.0483H124.248V34.8984H125.377ZM134.385 39.0006L134.45 38.7771C134.587 38.3146 134.706 37.9591 134.806 37.7108L136.05 34.8984H137.62V40.0483H136.531V35.8902L136.441 36.1696C136.291 36.6694 136.164 37.0372 136.06 37.2731L134.846 40.0483H133.954L132.74 37.2545C132.573 36.8509 132.419 36.3962 132.278 35.8902V40.0483H131.2V34.8984H132.76L133.963 37.627C134.071 37.8785 134.211 38.3363 134.385 39.0006ZM146.789 36.2161C146.789 36.8246 146.406 37.1924 145.64 37.3197V37.3569C146.068 37.4035 146.396 37.5292 146.623 37.7341C146.851 37.939 146.964 38.2044 146.964 38.5303C146.964 39.0177 146.763 39.3933 146.362 39.6572C145.964 39.9179 145.384 40.0483 144.622 40.0483H141.974V34.8984H144.612C146.063 34.8984 146.789 35.3376 146.789 36.2161ZM145.755 38.4652C145.755 38.2168 145.652 38.0414 145.444 37.939C145.237 37.8335 144.926 37.7806 144.511 37.7806H143.152V39.2381H144.542C145.351 39.2381 145.755 38.9804 145.755 38.4652ZM145.61 36.3092C145.61 36.1043 145.523 35.9569 145.349 35.8669C145.179 35.7738 144.923 35.7272 144.582 35.7272H143.152V36.9658H144.406C144.801 36.9658 145.1 36.9192 145.304 36.8261C145.508 36.7299 145.61 36.5576 145.61 36.3092ZM155.411 40.0483H154.222V35.7551H152.692C152.599 36.8603 152.471 37.7232 152.311 38.3441C152.154 38.9649 151.946 39.4181 151.689 39.7037C151.435 39.9893 151.104 40.1321 150.696 40.1321C150.438 40.1321 150.223 40.098 150.049 40.0297V39.1729C150.172 39.2164 150.296 39.2381 150.42 39.2381C150.761 39.2381 151.028 38.8827 151.223 38.1718C151.42 37.4578 151.574 36.3667 151.684 34.8984H155.411V40.0483ZM164.509 37.464C164.509 38.3084 164.287 38.9665 163.842 39.4383C163.4 39.9071 162.784 40.1414 161.991 40.1414C161.262 40.1414 160.682 39.9428 160.251 39.5454C159.823 39.145 159.574 38.5722 159.503 37.8272H158.28V40.0483H157.101V34.8984H158.28V36.9658H159.514C159.597 36.2829 159.855 35.7521 160.286 35.3733C160.72 34.9946 161.296 34.8052 162.011 34.8052C162.78 34.8052 163.389 35.0458 163.837 35.527C164.285 36.005 164.509 36.6507 164.509 37.464ZM160.707 37.464C160.707 38.0507 160.807 38.4946 161.008 38.7957C161.212 39.0969 161.543 39.2474 162.001 39.2474C162.456 39.2474 162.786 39.0969 162.99 38.7957C163.194 38.4946 163.295 38.0507 163.295 37.464C163.295 36.8835 163.194 36.4443 162.99 36.1463C162.786 35.8483 162.456 35.6993 162.001 35.6993C161.543 35.6993 161.212 35.8483 161.008 36.1463C160.807 36.4443 160.707 36.8835 160.707 37.464ZM165.558 36.9565C165.558 35.8079 165.766 34.9248 166.184 34.307C166.606 33.6893 167.274 33.2919 168.191 33.115C168.883 32.9846 169.68 32.8574 170.583 32.7332L170.748 33.697C169.652 33.8523 168.85 33.9733 168.341 34.0602C167.816 34.1502 167.436 34.3505 167.203 34.6609C166.972 34.9713 166.838 35.4385 166.801 36.0625H166.876C167.067 35.8048 167.316 35.6062 167.624 35.4665C167.931 35.3237 168.261 35.2523 168.612 35.2523C169.294 35.2523 169.826 35.4525 170.207 35.8529C170.588 36.2534 170.779 36.8153 170.779 37.5385C170.779 38.3673 170.546 39.0084 170.082 39.4616C169.62 39.9148 168.98 40.1414 168.16 40.1414C167.348 40.1414 166.711 39.862 166.25 39.3033C165.788 38.7445 165.558 37.9622 165.558 36.9565ZM168.241 39.2474C169.117 39.2474 169.555 38.7135 169.555 37.6456C169.555 36.615 169.159 36.0997 168.366 36.0997C168.149 36.0997 167.938 36.1432 167.734 36.2301C167.53 36.317 167.341 36.4319 167.167 36.5747C166.997 36.7174 166.865 36.8649 166.771 37.017C166.771 37.7496 166.896 38.3053 167.147 38.684C167.398 39.0596 167.763 39.2474 168.241 39.2474ZM173.316 36.9565H174.44C175.216 36.9565 175.79 37.0806 176.16 37.329C176.532 37.5773 176.718 37.9498 176.718 38.4465C176.718 38.9773 176.523 39.3778 176.135 39.6479C175.751 39.9148 175.186 40.0483 174.44 40.0483H172.138V34.8984H173.316V36.9565ZM175.548 38.4745C175.548 38.2168 175.445 38.0368 175.238 37.9343C175.034 37.8319 174.739 37.7806 174.355 37.7806H173.316V39.2381H174.204C174.679 39.2381 175.022 39.176 175.232 39.0519C175.443 38.9277 175.548 38.7352 175.548 38.4745ZM178.774 40.0483H177.59V34.8984H178.774V40.0483ZM181.698 37.4174L179.837 34.8984H181.181L182.445 36.7004L183.719 34.8984H185.054L183.187 37.4174L185.148 40.0483H183.815L182.445 38.1206L181.081 40.0483H179.747L181.698 37.4174ZM112.235 48.0674V50.1349H114.849V48.0674H116.027V53.2174H114.849V50.9964H112.235V53.2174H111.057V48.0674H112.235ZM121.189 53.2174L120.953 52.5004H120.913C120.645 52.8137 120.376 53.028 120.105 53.1429C119.834 53.2546 119.487 53.3105 119.062 53.3105C118.517 53.3105 118.09 53.1738 117.783 52.9009C117.479 52.6275 117.326 52.2411 117.326 51.7415C117.326 51.2107 117.539 50.8102 117.963 50.54C118.388 50.2698 119.035 50.1227 119.905 50.0977L120.862 50.0695V49.7948C120.862 49.466 120.779 49.2208 120.612 49.0591C120.448 48.8948 120.192 48.8126 119.845 48.8126C119.56 48.8126 119.287 48.8512 119.027 48.9288C118.766 49.0065 118.515 49.0982 118.274 49.2035L117.893 48.4211C118.194 48.2754 118.523 48.1655 118.881 48.0905C119.239 48.0133 119.577 47.9743 119.894 47.9743C120.6 47.9743 121.132 48.1173 121.49 48.4025C121.851 48.6881 122.031 49.1368 122.031 49.7485V53.2174H121.189ZM119.433 52.4722C119.861 52.4722 120.204 52.3623 120.461 52.1416C120.722 51.9182 120.853 51.6062 120.853 51.2057V50.7589L120.14 50.7866C119.585 50.8052 119.181 50.8924 118.926 51.0477C118.675 51.1998 118.55 51.4341 118.55 51.7506C118.55 51.9804 118.624 52.1589 118.771 52.286C118.918 52.4104 119.139 52.4722 119.433 52.4722ZM128.526 48.0674V53.2174H127.343V48.9334H124.855V53.2174H123.677V48.0674H128.526ZM133.031 53.3105C132.329 53.3105 131.783 53.0762 131.395 52.6075H131.325C131.372 53.0421 131.395 53.3059 131.395 53.399V55.5084H130.217V48.0674H131.17C131.197 48.1636 131.252 48.3934 131.335 48.7567H131.395C131.763 48.2349 132.315 47.9743 133.051 47.9743C133.743 47.9743 134.281 48.2072 134.666 48.6727C135.054 49.1386 135.247 49.7921 135.247 50.6331C135.247 51.4745 135.05 52.1307 134.656 52.6025C134.265 53.0748 133.723 53.3105 133.031 53.3105ZM132.745 48.8684C132.277 48.8684 131.934 48.9956 131.717 49.2503C131.502 49.5046 131.395 49.9115 131.395 50.47V50.6331C131.395 51.2602 131.502 51.7148 131.717 51.9972C131.93 52.2769 132.28 52.4163 132.765 52.4163C133.173 52.4163 133.487 52.2615 133.708 51.9509C133.929 51.6403 134.039 51.198 134.039 50.624C134.039 50.0464 133.929 49.6104 133.708 49.3153C133.49 49.0174 133.169 48.8684 132.745 48.8684ZM140.088 53.2174L139.852 52.5004H139.812C139.544 52.8137 139.275 53.028 139.004 53.1429C138.734 53.2546 138.386 53.3105 137.961 53.3105C137.416 53.3105 136.99 53.1738 136.682 52.9009C136.378 52.6275 136.226 52.2411 136.226 51.7415C136.226 51.2107 136.438 50.8102 136.863 50.54C137.287 50.2698 137.934 50.1227 138.804 50.0977L139.762 50.0695V49.7948C139.762 49.466 139.678 49.2208 139.511 49.0591C139.347 48.8948 139.091 48.8126 138.743 48.8126C138.459 48.8126 138.187 48.8512 137.926 48.9288C137.665 49.0065 137.414 49.0982 137.174 49.2035L136.792 48.4211C137.093 48.2754 137.423 48.1655 137.781 48.0905C138.138 48.0133 138.476 47.9743 138.794 47.9743C139.499 47.9743 140.031 48.1173 140.389 48.4025C140.75 48.6881 140.93 49.1368 140.93 49.7485V53.2174H140.088ZM138.332 52.4722C138.76 52.4722 139.103 52.3623 139.36 52.1416C139.621 51.9182 139.751 51.6062 139.751 51.2057V50.7589L139.039 50.7866C138.484 50.8052 138.08 50.8924 137.826 51.0477C137.575 51.1998 137.45 51.4341 137.45 51.7506C137.45 51.9804 137.523 52.1589 137.67 52.286C137.817 52.4104 138.038 52.4722 138.332 52.4722ZM147.391 49.3852C147.391 49.9937 147.008 50.3615 146.242 50.4887V50.5259C146.67 50.5727 146.998 50.6985 147.225 50.9033C147.452 51.1081 147.566 51.3733 147.566 51.6993C147.566 52.1866 147.366 52.5626 146.964 52.8264C146.566 53.0871 145.986 53.2174 145.224 53.2174H142.575V48.0674H145.214C146.665 48.0674 147.391 48.5065 147.391 49.3852ZM146.357 51.6344C146.357 51.386 146.254 51.2107 146.046 51.1081C145.839 51.0027 145.528 50.9496 145.114 50.9496H143.754V52.4073H145.143C145.953 52.4073 146.357 52.1493 146.357 51.6344ZM146.212 49.4783C146.212 49.2735 146.125 49.1259 145.951 49.036C145.78 48.9429 145.525 48.8961 145.183 48.8961H143.754V50.1349H145.008C145.403 50.1349 145.702 50.0881 145.906 49.9951C146.11 49.8988 146.212 49.7267 146.212 49.4783ZM153.344 53.2174H152.155V48.9243H150.626C150.532 50.0291 150.405 50.8924 150.244 51.5131C150.087 52.1339 149.88 52.5871 149.623 52.8727C149.368 53.1584 149.038 53.3014 148.63 53.3014C148.372 53.3014 148.156 53.2669 147.982 53.1988V52.3419C148.106 52.3855 148.23 52.4073 148.354 52.4073C148.695 52.4073 148.962 52.0517 149.156 51.341C149.354 50.6267 149.507 49.5359 149.618 48.0674H153.344V53.2174ZM157.457 53.3105C156.594 53.3105 155.919 53.0775 155.431 52.6121C154.946 52.1434 154.703 51.4991 154.703 50.6798C154.703 49.8384 154.929 49.1772 155.38 48.6959C155.832 48.215 156.452 47.9743 157.242 47.9743C157.974 47.9743 158.552 48.1809 158.977 48.5937C159.402 49.0065 159.614 49.5745 159.614 50.2979V50.8892H155.917C155.934 51.3892 156.079 51.7738 156.354 52.044C156.628 52.311 157.014 52.4445 157.512 52.4445C157.84 52.4445 158.144 52.4163 158.425 52.3605C158.709 52.3015 159.014 52.2052 159.338 52.0721V52.9613C159.05 53.0884 158.759 53.1788 158.465 53.2315C158.171 53.2841 157.835 53.3105 157.457 53.3105ZM157.242 48.803C156.867 48.803 156.566 48.9134 156.339 49.1336C156.115 49.3543 155.981 49.6754 155.937 50.0977H158.455C158.448 49.6722 158.338 49.3511 158.124 49.1336C157.91 48.9134 157.616 48.803 157.242 48.803ZM162.132 48.0674V50.1349H164.745V48.0674H165.923V53.2174H164.745V50.9964H162.132V53.2174H160.953V48.0674H162.132ZM168.742 48.0674V50.7075C168.742 51.015 168.716 51.4668 168.662 52.0626L171.446 48.0674H172.886V53.2174H171.752V50.624C171.752 50.4809 171.76 50.2498 171.777 49.9301C171.797 49.6104 171.814 49.3775 171.827 49.2317L169.054 53.2174H167.614V48.0674H168.742ZM175.132 53.2174H173.813L175.358 51.1081C174.983 51.0086 174.689 50.832 174.475 50.5772C174.261 50.3197 174.154 50.0014 174.154 49.6227C174.154 49.1354 174.342 48.7549 174.716 48.482C175.091 48.2054 175.602 48.0674 176.251 48.0674H178.779V53.2174H177.595V51.2339H176.476L175.132 53.2174ZM175.303 49.6318C175.303 49.8961 175.41 50.0945 175.624 50.228C175.841 50.3583 176.132 50.4237 176.496 50.4237H177.595V48.8961H176.311C175.99 48.8961 175.741 48.9601 175.564 49.0873C175.39 49.2144 175.303 49.3961 175.303 49.6318ZM181.698 50.5868L179.837 48.0674H181.181L182.445 49.8693L183.719 48.0674H185.054L183.187 50.5868L185.148 53.2174H183.815L182.445 51.2897L181.081 53.2174H179.747L181.698 50.5868Z" fill="#212D55"/>
<defs>
<linearGradient id="paint0_linear_1184_3" x1="70.2062" y1="21.5436" x2="27.4115" y2="67.6409" gradientUnits="userSpaceOnUse">
<stop stop-color="#212D55"/>
<stop offset="0.491587" stop-color="#212D55" stop-opacity="0.38"/>
<stop offset="1" stop-color="#212D55"/>
</linearGradient>
</defs>
</svg>
