<svg width="144" height="73" viewBox="0 0 144 73" fill="none" xmlns="http://www.w3.org/2000/svg">
<path d="M71.2451 35.268L37.7477 1.66676C37.0694 0.98636 35.9697 0.98636 35.2914 1.66676L1.79397 35.268C1.11567 35.9484 1.11567 37.0516 1.79397 37.732L35.2914 71.3332C35.9697 72.0136 37.0694 72.0136 37.7477 71.3332L71.2451 37.732C71.9234 37.0516 71.9234 35.9484 71.2451 35.268Z" fill="url(#paint0_linear_1184_4)"/>
<path d="M49.1344 59.2235C44.9246 61.4186 45.8697 61.3338 40.7231 61.7705C35.5761 62.2069 30.398 61.3248 25.7739 59.2235C21.1498 57.1223 17.2646 53.886 14.5578 49.8809C11.851 45.8758 10.4306 41.2616 10.4574 36.5603C10.4842 31.859 11.9571 27.2584 14.7094 23.279C17.4617 19.2995 21.3836 16.1001 26.0314 14.0427C30.6792 11.9852 35.8672 11.1519 41.0086 11.6369C46.1501 12.122 47.4625 12.4609 51.547 15.3422L49.1344 23.8114C46.4912 21.9469 43.3273 20.7925 40.0004 20.4786C36.6735 20.1647 33.3161 20.704 30.3086 22.0354C27.3011 23.3667 24.7632 25.437 22.9822 28.0121C21.2012 30.5872 20.2481 33.5642 20.2308 36.6065C20.2134 39.6485 21.1325 42.6343 22.8841 45.2261C24.6357 47.8179 27.1498 49.9118 30.142 51.2717C33.1342 52.6311 36.4849 53.202 39.8153 52.9195C43.146 52.6371 46.3227 51.5124 48.987 49.6732L49.1344 59.2235Z" fill="#D0D0D0"/>
<path d="M69.0265 13.1322C68.2028 13.1322 67.5652 13.4438 67.1132 14.0669C66.6616 14.6854 66.4356 15.5493 66.4356 16.6587C66.4356 18.9672 67.2992 20.1214 69.0265 20.1214C69.7509 20.1214 70.6286 19.9397 71.6593 19.5762V21.4173C70.8124 21.7713 69.8666 21.9484 68.8214 21.9484C67.3201 21.9484 66.1719 21.4928 65.3767 20.5817C64.5812 19.6659 64.1836 18.3535 64.1836 16.6445C64.1836 15.5682 64.3788 14.6264 64.7695 13.8191C65.1602 13.0071 65.7203 12.3863 66.4496 11.9567C67.1839 11.5224 68.0426 11.3053 69.0265 11.3053C70.0286 11.3053 71.0357 11.5484 72.0478 12.0346L71.3416 13.8191C70.9558 13.635 70.5678 13.4745 70.177 13.3376C69.7863 13.2007 69.4028 13.1322 69.0265 13.1322ZM80.2224 13.8899V15.5115H77.6387V21.8068H75.4856V15.5115H72.8947V13.8899H80.2224ZM86.0324 21.9484C85.1052 21.9484 84.3782 21.6109 83.8509 20.9358H83.7379C83.8132 21.5967 83.8509 21.9791 83.8509 22.0829V25.2907H81.6978V13.8899H83.4487L83.7523 14.9167H83.8509C84.3546 14.133 85.1007 13.7412 86.0887 13.7412C87.0205 13.7412 87.7502 14.1024 88.2772 14.8247C88.8045 15.547 89.0678 16.5501 89.0678 17.8342C89.0678 18.6792 88.943 19.4133 88.6938 20.0364C88.4491 20.6596 88.0983 21.134 87.6418 21.4598C87.1852 21.7855 86.6488 21.9484 86.0324 21.9484ZM85.3971 15.4691C84.8652 15.4691 84.4771 15.6343 84.2321 15.9647C83.9874 16.2905 83.8604 16.831 83.8509 17.5863V17.82C83.8509 18.6698 83.9756 19.2788 84.2252 19.647C84.4794 20.0152 84.8793 20.1993 85.4252 20.1993C86.3901 20.1993 86.8725 19.4015 86.8725 17.8059C86.8725 17.0269 86.7523 16.4439 86.5122 16.0568C86.2771 15.665 85.9054 15.4691 85.3971 15.4691ZM92.5623 17.8342C92.5623 18.6178 92.6894 19.2103 92.9435 19.6116C93.2023 20.0129 93.6211 20.2135 94.2002 20.2135C94.7743 20.2135 95.186 20.0152 95.4356 19.6187C95.6897 19.2174 95.8168 18.6226 95.8168 17.8342C95.8168 17.0505 95.6897 16.4628 95.4356 16.0709C95.1814 15.6791 94.7648 15.4832 94.1858 15.4832C93.6116 15.4832 93.1977 15.6791 92.9435 16.0709C92.6894 16.458 92.5623 17.0458 92.5623 17.8342ZM98.0193 17.8342C98.0193 19.123 97.6803 20.1309 97.0027 20.8579C96.3251 21.5849 95.3812 21.9484 94.1717 21.9484C93.4142 21.9484 92.7457 21.7832 92.167 21.4527C91.588 21.1175 91.1432 20.6384 90.8327 20.0152C90.5223 19.3921 90.3667 18.665 90.3667 17.8342C90.3667 16.5407 90.7034 15.5351 91.3764 14.8176C92.0495 14.1 92.9953 13.7412 94.2143 13.7412C94.9718 13.7412 95.6403 13.9065 96.2189 14.2369C96.798 14.5674 97.2428 15.0418 97.5532 15.6602C97.8637 16.2787 98.0193 17.0033 98.0193 17.8342ZM101.881 13.8899V17.0198C101.881 17.3503 101.827 18.1576 101.718 19.4416L105.361 13.8899H107.952V21.8068H105.869V18.6485C105.869 18.0867 105.916 17.2937 106.011 16.2692L102.382 21.8068H99.798V13.8899H101.881ZM116.748 13.8899V15.5115H114.164V21.8068H112.011V15.5115H109.42V13.8899H116.748ZM121.492 15.2779C121.035 15.2779 120.677 15.4242 120.419 15.7169C120.16 16.0048 120.012 16.4156 119.974 16.949H122.995C122.986 16.4156 122.847 16.0048 122.579 15.7169C122.31 15.4242 121.948 15.2779 121.492 15.2779ZM121.795 21.9484C120.524 21.9484 119.531 21.5967 118.816 20.8933C118.101 20.1899 117.743 19.1938 117.743 17.905C117.743 16.5785 118.072 15.554 118.731 14.8317C119.395 14.1047 120.31 13.7412 121.477 13.7412C122.593 13.7412 123.461 14.0599 124.083 14.6972C124.703 15.3345 125.014 16.2149 125.014 17.3385V18.3865H119.924C119.948 19.0002 120.129 19.4794 120.468 19.824C120.807 20.1686 121.282 20.341 121.894 20.341C122.369 20.341 122.819 20.2914 123.242 20.1922C123.666 20.0931 124.108 19.935 124.57 19.7178V21.389C124.193 21.5778 123.791 21.7171 123.362 21.8068C122.934 21.9012 122.412 21.9484 121.795 21.9484ZM133.832 21.8068H131.678V15.5115H129.695C129.544 17.2819 129.36 18.6037 129.144 19.477C128.927 20.3456 128.638 20.9759 128.276 21.3677C127.918 21.7548 127.447 21.9484 126.864 21.9484C126.365 21.9484 125.956 21.8729 125.636 21.7218V19.994C125.866 20.0884 126.097 20.1356 126.327 20.1356C126.595 20.1356 126.819 19.942 126.998 19.5549C127.181 19.1678 127.344 18.5234 127.485 17.6217C127.631 16.7153 127.756 15.4714 127.859 13.8899H133.832V21.8068ZM138.251 16.949H139.768C140.982 16.949 141.881 17.1426 142.465 17.5297C143.049 17.9168 143.34 18.5022 143.34 19.2858C143.34 20.9665 142.178 21.8068 139.853 21.8068H136.098V13.8899H138.251V16.949ZM141.187 19.3142C141.187 19.0073 141.065 18.7854 140.82 18.6485C140.575 18.5116 140.211 18.4432 139.726 18.4432H138.251V20.3126H139.754C140.71 20.3126 141.187 19.9798 141.187 19.3142Z" fill="#212D55"/>
<defs>
<linearGradient id="paint0_linear_1184_4" x1="54.4965" y1="18.4675" x2="18.4315" y2="54.4211" gradientUnits="userSpaceOnUse">
<stop stop-color="#212D55"/>
<stop offset="0.491587" stop-color="#212D55" stop-opacity="0.38"/>
<stop offset="1" stop-color="#212D55"/>
</linearGradient>
</defs>
</svg>
