<svg width="149" height="76" viewBox="0 0 149 76" fill="none" xmlns="http://www.w3.org/2000/svg">
<path d="M73.7854 36.7212L39.1564 1.84399C38.4552 1.13775 37.3183 1.13775 36.6171 1.84399L1.988 36.7212C1.28678 37.4275 1.28678 38.5725 1.988 39.2788L36.6171 74.156C37.3183 74.8623 38.4552 74.8623 39.1564 74.156L73.7854 39.2788C74.4867 38.5725 74.4867 37.4275 73.7854 36.7212Z" fill="url(#paint0_linear_1184_5)"/>
<path d="M50.9294 61.5865C46.5773 63.8649 47.5543 63.7769 42.2339 64.2302C36.913 64.6831 31.5599 63.7675 26.7796 61.5865C21.9994 59.4055 17.9829 56.0463 15.1846 51.8891C12.3863 47.7319 10.918 42.9425 10.9457 38.0626C10.9734 33.1828 12.496 28.4075 15.3413 24.277C18.1867 20.1464 22.241 16.8255 27.0458 14.6899C31.8506 12.5543 37.2139 11.6893 42.5291 12.1928C47.8442 12.6963 49.201 13.0481 53.4235 16.0388L50.9294 24.8296C48.1969 22.8943 44.9261 21.696 41.4867 21.3702C38.0474 21.0444 34.5767 21.6042 31.4675 22.9861C28.3584 24.368 25.7348 26.5169 23.8936 29.1898C22.0525 31.8627 21.0672 34.9528 21.0493 38.1106C21.0313 41.2681 21.9815 44.3673 23.7922 47.0575C25.6029 49.7477 28.202 51.9212 31.2953 53.3326C34.3886 54.7437 37.8525 55.3362 41.2954 55.0431C44.7386 54.7499 48.0227 53.5826 50.777 51.6734L50.9294 61.5865Z" fill="#242A3D"/>
<path d="M71.4909 13.7448C70.6394 13.7448 69.9802 14.0682 69.5129 14.715C69.046 15.357 68.8124 16.2537 68.8124 17.4052C68.8124 19.8014 69.7052 20.9994 71.4909 20.9994C72.2398 20.9994 73.1472 20.8108 74.2126 20.4335V22.3445C73.3371 22.712 72.3593 22.8958 71.2789 22.8958C69.7269 22.8958 68.5398 22.4229 67.7178 21.4772C66.8954 20.5266 66.4844 19.1644 66.4844 17.3905C66.4844 16.2733 66.6861 15.2957 67.0901 14.4578C67.494 13.615 68.073 12.9706 68.827 12.5247C69.5861 12.0739 70.4738 11.8485 71.4909 11.8485C72.5269 11.8485 73.568 12.1008 74.6142 12.6055L73.8842 14.4578C73.4854 14.2667 73.0842 14.1001 72.6803 13.958C72.2764 13.8159 71.8799 13.7448 71.4909 13.7448ZM83.065 14.5313V16.2145H80.394V22.7488H78.1682V16.2145H75.4897V14.5313H83.065ZM89.0713 22.8958C88.1128 22.8958 87.3612 22.5454 86.8161 21.8447H86.6993C86.7771 22.5307 86.8161 22.9276 86.8161 23.0354V26.3651H84.5903V14.5313H86.4003L86.7142 15.5971H86.8161C87.3368 14.7837 88.1081 14.3769 89.1296 14.3769C90.0928 14.3769 90.8472 14.7518 91.3919 15.5015C91.9371 16.2513 92.2092 17.2925 92.2092 18.6253C92.2092 19.5025 92.0802 20.2644 91.8226 20.9112C91.5697 21.558 91.2071 22.0505 90.7351 22.3886C90.2631 22.7267 89.7085 22.8958 89.0713 22.8958ZM88.4145 16.1704C87.8647 16.1704 87.4635 16.3419 87.2102 16.6849C86.9573 17.023 86.8259 17.5841 86.8161 18.3681V18.6106C86.8161 19.4927 86.9451 20.1248 87.2031 20.507C87.4658 20.8892 87.8792 21.0803 88.4436 21.0803C89.4411 21.0803 89.9398 20.2522 89.9398 18.5959C89.9398 17.7874 89.8155 17.1823 89.5673 16.7805C89.3243 16.3737 88.94 16.1704 88.4145 16.1704ZM95.8218 18.6253C95.8218 19.4388 95.9532 20.0537 96.2159 20.4702C96.4834 20.8867 96.9164 21.095 97.5151 21.095C98.1086 21.095 98.5341 20.8892 98.7922 20.4776C99.0549 20.0611 99.1863 19.4437 99.1863 18.6253C99.1863 17.8119 99.0549 17.2019 98.7922 16.7951C98.5294 16.3884 98.0987 16.1851 97.5001 16.1851C96.9066 16.1851 96.4787 16.3884 96.2159 16.7951C95.9532 17.1969 95.8218 17.807 95.8218 18.6253ZM101.463 18.6253C101.463 19.9631 101.113 21.0092 100.412 21.7639C99.7117 22.5185 98.7359 22.8958 97.4856 22.8958C96.7025 22.8958 96.0114 22.7243 95.4132 22.3813C94.8146 22.0334 94.3548 21.536 94.0338 20.8892C93.7129 20.2424 93.552 19.4878 93.552 18.6253C93.552 17.2827 93.9001 16.239 94.5959 15.4942C95.2916 14.7493 96.2694 14.3769 97.5296 14.3769C98.3127 14.3769 99.0038 14.5485 99.602 14.8914C100.201 15.2345 100.66 15.7269 100.981 16.3688C101.302 17.0108 101.463 17.7629 101.463 18.6253ZM105.455 14.5313V17.7801C105.455 18.1231 105.399 18.961 105.287 20.2938L109.053 14.5313H111.731V22.7488H109.578V19.4706C109.578 18.8875 109.627 18.0643 109.724 17.0009L105.973 22.7488H103.302V14.5313H105.455ZM120.824 14.5313V16.2145H118.153V22.7488H115.927V16.2145H113.249V14.5313H120.824ZM125.728 15.9719C125.256 15.9719 124.887 16.1238 124.619 16.4277C124.351 16.7265 124.198 17.1529 124.159 17.7066H127.283C127.273 17.1529 127.129 16.7265 126.852 16.4277C126.575 16.1238 126.2 15.9719 125.728 15.9719ZM126.042 22.8958C124.729 22.8958 123.702 22.5307 122.963 21.8006C122.223 21.0705 121.853 20.0366 121.853 18.6989C121.853 17.3219 122.194 16.2586 122.875 15.5089C123.561 14.7543 124.507 14.3769 125.714 14.3769C126.867 14.3769 127.765 14.7077 128.407 15.3692C129.049 16.0307 129.37 16.9446 129.37 18.1108V19.1987H124.108C124.133 19.8357 124.32 20.333 124.67 20.6907C125.02 21.0485 125.512 21.2273 126.145 21.2273C126.636 21.2273 127.1 21.1758 127.538 21.0729C127.976 20.9701 128.434 20.8059 128.91 20.5805V22.3151C128.521 22.5111 128.105 22.6557 127.662 22.7488C127.219 22.8468 126.679 22.8958 126.042 22.8958ZM138.485 22.7488H136.259V16.2145H134.209C134.053 18.052 133.863 19.4241 133.639 20.3306C133.415 21.2322 133.116 21.8864 132.742 22.2931C132.372 22.6949 131.885 22.8958 131.282 22.8958C130.766 22.8958 130.343 22.8174 130.012 22.6606V20.8671C130.251 20.9651 130.489 21.0141 130.727 21.0141C131.005 21.0141 131.236 20.8132 131.421 20.4114C131.61 20.0096 131.778 19.3408 131.924 18.4048C132.075 17.464 132.204 16.1728 132.311 14.5313H138.485V22.7488ZM143.054 17.7066H144.623C145.878 17.7066 146.807 17.9075 147.41 18.3093C148.014 18.7111 148.315 19.3187 148.315 20.1321C148.315 21.8766 147.113 22.7488 144.71 22.7488H140.828V14.5313H143.054V17.7066ZM146.09 20.1615C146.09 19.843 145.963 19.6127 145.71 19.4706C145.457 19.3285 145.08 19.2574 144.579 19.2574H143.054V21.1979H144.608C145.596 21.1979 146.09 20.8524 146.09 20.1615Z" fill="#D7D7D7"/>
<defs>
<linearGradient id="paint0_linear_1184_5" x1="56.471" y1="19.2828" x2="19.0372" y2="56.4502" gradientUnits="userSpaceOnUse">
<stop stop-color="#D0D0D0"/>
<stop offset="0.491587" stop-color="white"/>
<stop offset="1" stop-color="#C4C4C4"/>
</linearGradient>
</defs>
</svg>
